<svg xmlns="http://www.w3.org/2000/svg" viewBox="0 0 32 32">
  <defs>
    <linearGradient id="g" x1="0%" y1="0%" x2="100%" y2="100%">
      <stop offset="0%" style="stop-color:#a855f7;stop-opacity:1" />
      <stop offset="100%" style="stop-color:#3b82f6;stop-opacity:1" />
    </linearGradient>
  </defs>
  <rect width="32" height="32" rx="6" fill="url(#g)" />
  <path d="M7 7h7v7H7V7zm2 2v3h3V9H9zm-2 9h7v7H7v-7zm2 2v3h3v-3H9zm9-11h7v7h-7V7zm2 2v3h3V9h-3zm-2 9h2v2h-2v-2zm3 0h4v2h-4v-2zm-3 3h2v2h-2v-2zm3 0h2v2h-2v-2zm2-2h2v2h-2v-2z" fill="#fff" />
</svg>
